<svg class="icon" viewBox="0 0 1024 1024" version="1.1" xmlns="http://www.w3.org/2000/svg"    width="100" height="100">    <path        d="M576 85.333333c0 18.944-8.234667 35.968-21.333333 47.701334V213.333333h213.333333a128 128 0 0 1 128 128v426.666667a128 128 0 0 1-128 128H256a128 128 0 0 1-128-128V341.333333a128 128 0 0 1 128-128h213.333333V133.034667A64 64 0 1 1 576 85.333333zM256 298.666667a42.666667 42.666667 0 0 0-42.666667 42.666666v426.666667a42.666667 42.666667 0 0 0 42.666667 42.666667h512a42.666667 42.666667 0 0 0 42.666667-42.666667V341.333333a42.666667 42.666667 0 0 0-42.666667-42.666666H256z m-170.666667 128H0v256h85.333333v-256z m853.333334 0h85.333333v256h-85.333333v-256zM384 618.666667a64 64 0 1 0 0-128 64 64 0 0 0 0 128z m256 0a64 64 0 1 0 0-128 64 64 0 0 0 0 128z"        fill="#999999" /></svg>